<?xml version="1.0" encoding="UTF-8" standalone="no"?>
<svg
   xmlns:dc="http://purl.org/dc/elements/1.1/"
   xmlns:cc="http://creativecommons.org/ns#"
   xmlns:rdf="http://www.w3.org/1999/02/22-rdf-syntax-ns#"
   xmlns:svg="http://www.w3.org/2000/svg"
   xmlns="http://www.w3.org/2000/svg"
   viewBox="0 0 264.56668 264.56668"
   height="264.56668"
   width="264.56668"
   xml:space="preserve"
   id="svg2"
   version="1.1"><metadata
     id="metadata8"><rdf:RDF><cc:Work
         rdf:about=""><dc:format>image/svg+xml</dc:format><dc:type
           rdf:resource="http://purl.org/dc/dcmitype/StillImage" /></cc:Work></rdf:RDF></metadata><defs
     id="defs6"><clipPath
       id="clipPath20"
       clipPathUnits="userSpaceOnUse"><path
         id="path18"
         d="M 0,0 V 198.42766 H 198.42766 V 0 Z" /></clipPath></defs><g
     transform="matrix(1.3333333,0,0,-1.3333333,0,264.56667)"
     id="g10"><g
       id="g12"><g
         id="g14"><g
           clip-path="url(#clipPath20)"
           id="g16"><g
             id="g22"><path
               id="path24"
               style="fill:#00b300;fill-opacity:1;fill-rule:nonzero;stroke:none"
               d="M 0,0 V 294.80664 H 379.84706 V 0 Z" /></g><g
             id="g26"><path
               id="path28"
               style="fill:none;stroke:#000000;stroke-width:1.59404004;stroke-linecap:butt;stroke-linejoin:miter;stroke-miterlimit:10;stroke-dasharray:none;stroke-opacity:1"
               d="M 11.33855,11.33855 V 283.4681 H 368.50851 V 11.33855 Z" /></g><g
             id="g30"><path
               id="path32"
               style="fill:none;stroke:#ffffff;stroke-width:0.79701;stroke-linecap:butt;stroke-linejoin:miter;stroke-miterlimit:10;stroke-dasharray:none;stroke-opacity:1"
               d="M 19.84267,19.84267 V 274.96396 H 360.00438 V 19.84267 Z" /></g><g
             id="g34"><path
               id="path36"
               style="fill:none;stroke:#ffffff;stroke-width:0.79701;stroke-linecap:butt;stroke-linejoin:miter;stroke-miterlimit:10;stroke-dasharray:none;stroke-opacity:1"
               d="M 19.84267,147.40332 H 360.00438" /></g><g
             id="g38"><path
               id="path40"
               style="fill:none;stroke:#ffffff;stroke-width:0.79701;stroke-linecap:butt;stroke-linejoin:miter;stroke-miterlimit:10;stroke-dasharray:none;stroke-opacity:1"
               d="M 189.92352,19.84267 V 274.96396" /></g><g
             id="g42"><path
               id="path44"
               style="fill:none;stroke:#ffffff;stroke-width:0.79701;stroke-linecap:butt;stroke-linejoin:miter;stroke-miterlimit:10;stroke-dasharray:none;stroke-opacity:1"
               d="m 218.27034,147.40332 c 0,15.6557 -12.6911,28.3468 -28.34682,28.3468 -15.65572,0 -28.34682,-12.6911 -28.34682,-28.3468 0,-15.65572 12.6911,-28.34682 28.34682,-28.34682 15.65572,0 28.34682,12.6911 28.34682,28.34682 z" /></g><g
             id="g46"><path
               id="path48"
               style="fill:none;stroke:#ffffff;stroke-width:0.79701;stroke-linecap:butt;stroke-linejoin:miter;stroke-miterlimit:10;stroke-dasharray:none;stroke-opacity:1"
               d="M 19.84267,113.38724 H 53.85875 V 181.4194 H 19.84267" /></g><g
             id="g50"><path
               id="path52"
               style="fill:none;stroke:#ffffff;stroke-width:0.79701;stroke-linecap:butt;stroke-linejoin:miter;stroke-miterlimit:10;stroke-dasharray:none;stroke-opacity:1"
               d="M 360.00438,113.38724 H 325.9883 v 68.03216 h 34.01608" /></g><g
             id="g54"><path
               id="path56"
               style="fill:none;stroke:#000000;stroke-width:0.3985;stroke-linecap:butt;stroke-linejoin:miter;stroke-miterlimit:10;stroke-dasharray:none;stroke-opacity:1"
               d="m 19.84267,130.39548 h -5.66928 v 34.01608 h 5.66928" /></g><g
             id="g58"><path
               id="path60"
               style="fill:none;stroke:#000000;stroke-width:0.3985;stroke-linecap:butt;stroke-linejoin:miter;stroke-miterlimit:10;stroke-dasharray:none;stroke-opacity:1"
               d="m 360.00438,130.39548 h 5.66928 v 34.01608 h -5.66928" /></g><g
             id="g62"><g
               transform="translate(109.561,80.271)"
               id="g64"><g
                 id="g66"><g
                   transform="translate(5.098,4.936)"
                   id="g68"><g
                     id="g70"><g
                       id="g72"><g
                         id="g74"><path
                           id="path76"
                           style="fill:#000000;fill-opacity:1;fill-rule:nonzero;stroke:none"
                           d="m 2.5511,3.06136 c -1.83479,1.53958 -4.57036,1.30027 -6.10994,-0.5345 -1.53958,-1.8348 -1.30028,-4.57036 0.5345,-6.10994 1.61203,-1.35271 3.96341,-1.35271 5.57544,0" /></g><g
                         id="g78"><path
                           id="path80"
                           style="fill:#0000ff;fill-opacity:1;fill-rule:nonzero;stroke:none"
                           d="M 1.27554,0 C 1.27554,0.70447 0.70447,1.27554 0,1.27554 -0.70447,1.27554 -1.27554,0.70447 -1.27554,0 c 0,-0.70447 0.57107,-1.27554 1.27554,-1.27554 0.70447,0 1.27554,0.57107 1.27554,1.27554 z" /></g><g
                         id="g82"><path
                           id="path84"
                           style="fill:#ff7373;fill-opacity:1;fill-rule:nonzero;stroke:none"
                           d="m 2.29596,2.5511 c 0,0.56357 -0.45685,1.02042 -1.02042,1.02042 -0.56356,0 -1.02041,-0.45685 -1.02041,-1.02042 0,-0.56357 0.45685,-1.02041 1.02041,-1.02041 0.56357,0 1.02042,0.45684 1.02042,1.02041 z" /></g><g
                         id="g86"><path
                           id="path88"
                           style="fill:#00ff00;fill-opacity:1;fill-rule:nonzero;stroke:none"
                           d="m -1.02043,1.53067 c 0,0.56357 -0.45685,1.02042 -1.02042,1.02042 -0.56357,0 -1.02041,-0.45685 -1.02041,-1.02042 0,-0.56357 0.45684,-1.02042 1.02041,-1.02042 0.56357,0 1.02042,0.45685 1.02042,1.02042 z" /></g><g
                         id="g90"><path
                           id="path92"
                           style="fill:#ff7373;fill-opacity:1;fill-rule:nonzero;stroke:none"
                           d="m -1.02043,-1.53067 c 0,0.56357 -0.45685,1.02042 -1.02042,1.02042 -0.56357,0 -1.02041,-0.45685 -1.02041,-1.02042 0,-0.56357 0.45684,-1.02042 1.02041,-1.02042 0.56357,0 1.02042,0.45685 1.02042,1.02042 z" /></g><g
                         id="g94"><path
                           id="path96"
                           style="fill:#00ff00;fill-opacity:1;fill-rule:nonzero;stroke:none"
                           d="m 2.29596,-2.5511 c 0,0.56357 -0.45685,1.02041 -1.02042,1.02041 -0.56356,0 -1.02041,-0.45684 -1.02041,-1.02041 0,-0.56357 0.45685,-1.02042 1.02041,-1.02042 0.56357,0 1.02042,0.45685 1.02042,1.02042 z" /></g></g></g><g
                     transform="translate(-5.098,-4.936)"
                     id="g98" /></g></g><g
                 transform="translate(-109.561,-80.271)"
                 id="g100" /></g></g><path
             id="path102"
             style="fill:none;stroke:#000000;stroke-width:0.3985;stroke-linecap:butt;stroke-linejoin:miter;stroke-miterlimit:10;stroke-dasharray:none;stroke-opacity:1"
             d="m 99.6721,102.04868 h 27.43026" /><g
             transform="rotate(180,49.83605,51.02434)"
             id="g104"><g
               id="g106"><path
                 id="path108"
                 style="fill:none;stroke:#000000;stroke-width:0.31878999;stroke-linecap:round;stroke-linejoin:round;stroke-miterlimit:10;stroke-dasharray:none;stroke-opacity:1"
                 d="M -1.19551,1.59401 C -1.09587,0.99626 0,0.09961 0.29886,0 0,-0.09961 -1.09587,-0.99626 -1.19551,-1.59401" /></g></g><g
             transform="translate(127.10236,102.04868)"
             id="g110"><g
               id="g112"><path
                 id="path114"
                 style="fill:none;stroke:#000000;stroke-width:0.31878999;stroke-linecap:round;stroke-linejoin:round;stroke-miterlimit:10;stroke-dasharray:none;stroke-opacity:1"
                 d="M -1.19551,1.59401 C -1.09587,0.99626 0,0.09961 0.29886,0 0,-0.09961 -1.09587,-0.99626 -1.19551,-1.59401" /></g></g><g
             id="g116"><g
               transform="translate(106.744,104.506)"
               id="g118"><g
                 id="g120"><g
                   transform="translate(-106.744,-104.506)"
                   id="g122"><text
                     id="text126"
                     style="font-variant:normal;font-weight:normal;font-size:9.96259975px;font-family:CMR10;-inkscape-font-specification:CMR10;writing-mode:lr-tb;fill:#000000;fill-opacity:1;fill-rule:nonzero;stroke:none"
                     transform="matrix(1,0,0,-1,106.744,104.506)"><tspan
                       id="tspan124"
                       y="0"
                       x="0 4.9812999">1m</tspan></text>
<g
                     transform="translate(106.744,104.506)"
                     id="g128" /></g></g><g
                 transform="translate(-106.744,-104.506)"
                 id="g130" /></g></g><path
             id="path132"
             style="fill:none;stroke:#000000;stroke-width:0.3985;stroke-linecap:butt;stroke-linejoin:miter;stroke-miterlimit:10;stroke-dasharray:none;stroke-opacity:1"
             d="M 130.39548,71.32529 V 98.75554" /><g
             transform="rotate(-90,100.86039,-29.535095)"
             id="g134"><g
               id="g136"><path
                 id="path138"
                 style="fill:none;stroke:#000000;stroke-width:0.31878999;stroke-linecap:round;stroke-linejoin:round;stroke-miterlimit:10;stroke-dasharray:none;stroke-opacity:1"
                 d="M -1.19551,1.59401 C -1.09587,0.99626 0,0.09961 0.29886,0 0,-0.09961 -1.09587,-0.99626 -1.19551,-1.59401" /></g></g><g
             transform="rotate(90,15.81997,114.57551)"
             id="g140"><g
               id="g142"><path
                 id="path144"
                 style="fill:none;stroke:#000000;stroke-width:0.31878999;stroke-linecap:round;stroke-linejoin:round;stroke-miterlimit:10;stroke-dasharray:none;stroke-opacity:1"
                 d="M -1.19551,1.59401 C -1.09587,0.99626 0,0.09961 0.29886,0 0,-0.09961 -1.09587,-0.99626 -1.19551,-1.59401" /></g></g><g
             id="g146"><g
               transform="translate(132.256,81.829)"
               id="g148"><g
                 id="g150"><g
                   transform="translate(-132.256,-81.829)"
                   id="g152"><text
                     id="text156"
                     style="font-variant:normal;font-weight:normal;font-size:9.96259975px;font-family:CMR10;-inkscape-font-specification:CMR10;writing-mode:lr-tb;fill:#000000;fill-opacity:1;fill-rule:nonzero;stroke:none"
                     transform="matrix(1,0,0,-1,132.256,81.829)"><tspan
                       id="tspan154"
                       y="0"
                       x="0 4.9812999">1m</tspan></text>
<g
                     transform="translate(132.256,81.829)"
                     id="g158" /></g></g><g
                 transform="translate(-132.256,-81.829)"
                 id="g160" /></g></g><g
             id="g162"><path
               id="path164"
               style="fill:none;stroke:#ff0000;stroke-width:0.3985;stroke-linecap:butt;stroke-linejoin:miter;stroke-miterlimit:10;stroke-dasharray:2.98883, 2.98883;stroke-dashoffset:0;stroke-opacity:1"
               d="m 99.21382,70.867 v 28.34682 h 28.3468 V 70.867 Z" /></g><path
             id="path166"
             style="fill:none;stroke:#000000;stroke-width:0.3985;stroke-linecap:butt;stroke-linejoin:miter;stroke-miterlimit:10;stroke-dasharray:none;stroke-opacity:1"
             d="M 20.30095,85.04042 H 98.75554" /><g
             transform="rotate(180,10.150475,42.52021)"
             id="g168"><g
               id="g170"><path
                 id="path172"
                 style="fill:none;stroke:#000000;stroke-width:0.31878999;stroke-linecap:round;stroke-linejoin:round;stroke-miterlimit:10;stroke-dasharray:none;stroke-opacity:1"
                 d="M -1.19551,1.59401 C -1.09587,0.99626 0,0.09961 0.29886,0 0,-0.09961 -1.09587,-0.99626 -1.19551,-1.59401" /></g></g><g
             transform="translate(98.75554,85.04042)"
             id="g174"><g
               id="g176"><path
                 id="path178"
                 style="fill:none;stroke:#000000;stroke-width:0.31878999;stroke-linecap:round;stroke-linejoin:round;stroke-miterlimit:10;stroke-dasharray:none;stroke-opacity:1"
                 d="M -1.19551,1.59401 C -1.09587,0.99626 0,0.09961 0.29886,0 0,-0.09961 -1.09587,-0.99626 -1.19551,-1.59401" /></g></g><g
             id="g180"><g
               transform="translate(49.011,88.176)"
               id="g182"><g
                 id="g184"><g
                   transform="translate(-49.011,-88.176)"
                   id="g186"><text
                     id="text190"
                     style="font-variant:normal;font-weight:normal;font-size:9.96259975px;font-family:CMSY10;-inkscape-font-specification:CMSY10;writing-mode:lr-tb;fill:#000000;fill-opacity:1;fill-rule:nonzero;stroke:none"
                     transform="matrix(1,0,0,-1,49.011,88.176)"><tspan
                       id="tspan188"
                       y="0"
                       x="0">≥</tspan></text>
<text
                     id="text194"
                     style="font-variant:normal;font-weight:normal;font-size:9.96259975px;font-family:CMR10;-inkscape-font-specification:CMR10;writing-mode:lr-tb;fill:#000000;fill-opacity:1;fill-rule:nonzero;stroke:none"
                     transform="matrix(1,0,0,-1,56.76,88.176)"><tspan
                       id="tspan192"
                       y="0"
                       x="0 4.9812999">2m</tspan></text>
<g
                     transform="translate(49.011,88.176)"
                     id="g196" /></g></g><g
                 transform="translate(-49.011,-88.176)"
                 id="g198" /></g></g><path
             id="path200"
             style="fill:none;stroke:#000000;stroke-width:0.3985;stroke-linecap:butt;stroke-linejoin:miter;stroke-miterlimit:10;stroke-dasharray:none;stroke-opacity:1"
             d="M 113.38724,70.40874 V 20.30095" /><g
             transform="rotate(90,21.48925,91.89799)"
             id="g202"><g
               id="g204"><path
                 id="path206"
                 style="fill:none;stroke:#000000;stroke-width:0.31878999;stroke-linecap:round;stroke-linejoin:round;stroke-miterlimit:10;stroke-dasharray:none;stroke-opacity:1"
                 d="M -1.19551,1.59401 C -1.09587,0.99626 0,0.09961 0.29886,0 0,-0.09961 -1.09587,-0.99626 -1.19551,-1.59401" /></g></g><g
             transform="rotate(-90,66.844095,-46.543145)"
             id="g208"><g
               id="g210"><path
                 id="path212"
                 style="fill:none;stroke:#000000;stroke-width:0.31878999;stroke-linecap:round;stroke-linejoin:round;stroke-miterlimit:10;stroke-dasharray:none;stroke-opacity:1"
                 d="M -1.19551,1.59401 C -1.09587,0.99626 0,0.09961 0.29886,0 0,-0.09961 -1.09587,-0.99626 -1.19551,-1.59401" /></g></g><g
             id="g214"><g
               transform="translate(117.043,42.821)"
               id="g216"><g
                 id="g218"><g
                   transform="translate(-117.043,-42.821)"
                   id="g220"><text
                     id="text224"
                     style="font-variant:normal;font-weight:normal;font-size:9.96259975px;font-family:CMSY10;-inkscape-font-specification:CMSY10;writing-mode:lr-tb;fill:#000000;fill-opacity:1;fill-rule:nonzero;stroke:none"
                     transform="matrix(1,0,0,-1,117.043,42.821)"><tspan
                       id="tspan222"
                       y="0"
                       x="0">≥</tspan></text>
<text
                     id="text228"
                     style="font-variant:normal;font-weight:normal;font-size:9.96259975px;font-family:CMR10;-inkscape-font-specification:CMR10;writing-mode:lr-tb;fill:#000000;fill-opacity:1;fill-rule:nonzero;stroke:none"
                     transform="matrix(1,0,0,-1,124.792,42.821)"><tspan
                       id="tspan226"
                       y="0"
                       x="0 4.9812999">2m</tspan></text>
<g
                     transform="translate(117.043,42.821)"
                     id="g230" /></g></g><g
                 transform="translate(-117.043,-42.821)"
                 id="g232" /></g></g><g
             id="g234"><path
               id="path236"
               style="fill:#ff8000;fill-opacity:1;fill-rule:nonzero;stroke:none"
               d="m 106.10197,79.37114 c 0,0.67317 -0.5457,1.21887 -1.21888,1.21887 -0.67317,0 -1.21887,-0.5457 -1.21887,-1.21887 0,-0.67319 0.5457,-1.21889 1.21887,-1.21889 0.67318,0 1.21888,0.5457 1.21888,1.21889 z" /></g></g></g></g></g></svg>